%TF.GenerationSoftware,KiCad,Pcbnew,8.0.7*%
%TF.CreationDate,2024-12-24T07:35:49+05:30*%
%TF.ProjectId,ic555_test,69633535-355f-4746-9573-742e6b696361,rev?*%
%TF.SameCoordinates,Original*%
%TF.FileFunction,Legend,Top*%
%TF.FilePolarity,Positive*%
%FSLAX46Y46*%
G04 Gerber Fmt 4.6, Leading zero omitted, Abs format (unit mm)*
G04 Created by KiCad (PCBNEW 8.0.7) date 2024-12-24 07:35:49*
%MOMM*%
%LPD*%
G01*
G04 APERTURE LIST*
%ADD10C,0.100000*%
%ADD11C,0.200000*%
%ADD12C,0.150000*%
%ADD13C,0.120000*%
G04 APERTURE END LIST*
D10*
G36*
X124502163Y-64408471D02*
G01*
X124523366Y-64453855D01*
X124542646Y-64501711D01*
X124554431Y-64534989D01*
X124571956Y-64583132D01*
X124589804Y-64629151D01*
X124594975Y-64642212D01*
X124699267Y-64926510D01*
X124754954Y-65080872D01*
X124772739Y-65133510D01*
X124789515Y-65181790D01*
X124807582Y-65230454D01*
X124812595Y-65242316D01*
X124837997Y-65282128D01*
X124863642Y-65290432D01*
X124895150Y-65298736D01*
X124939113Y-65311193D01*
X124941800Y-65320963D01*
X124939846Y-65329511D01*
X124908827Y-65330000D01*
X124856552Y-65330000D01*
X124806566Y-65330000D01*
X124785240Y-65330000D01*
X124716608Y-65330000D01*
X124633321Y-65330000D01*
X124616468Y-65330000D01*
X124601814Y-65330000D01*
X124586671Y-65330000D01*
X124572993Y-65325359D01*
X124576413Y-65304110D01*
X124591556Y-65298736D01*
X124663607Y-65294096D01*
X124706106Y-65286524D01*
X124710258Y-65268450D01*
X124697564Y-65220717D01*
X124692428Y-65205924D01*
X124676162Y-65159239D01*
X124670690Y-65141933D01*
X124654160Y-65094429D01*
X124635052Y-65042436D01*
X124616253Y-64992061D01*
X124597662Y-64942630D01*
X124548080Y-64937745D01*
X124401046Y-64939211D01*
X124357815Y-64938478D01*
X124308031Y-64941687D01*
X124306280Y-64941898D01*
X124294801Y-64969986D01*
X124234228Y-65150481D01*
X124215692Y-65201136D01*
X124199627Y-65248450D01*
X124195882Y-65264054D01*
X124201988Y-65283593D01*
X124240334Y-65290921D01*
X124333879Y-65298736D01*
X124341451Y-65314368D01*
X124339497Y-65329023D01*
X124292114Y-65330000D01*
X124240569Y-65330000D01*
X124190881Y-65330000D01*
X124164131Y-65330000D01*
X124116259Y-65328534D01*
X124065945Y-65330000D01*
X124032240Y-65330000D01*
X123989741Y-65327313D01*
X123989741Y-65322184D01*
X123992428Y-65305575D01*
X124009769Y-65298736D01*
X124025401Y-65298736D01*
X124042009Y-65298004D01*
X124091068Y-65292108D01*
X124104291Y-65288478D01*
X124140052Y-65252897D01*
X124145568Y-65243293D01*
X124168738Y-65194087D01*
X124188544Y-65146513D01*
X124206802Y-65098900D01*
X124225924Y-65045701D01*
X124242411Y-64999204D01*
X124252791Y-64971939D01*
X124271639Y-64924464D01*
X124280154Y-64901109D01*
X124316050Y-64901109D01*
X124320202Y-64903796D01*
X124373169Y-64906160D01*
X124425529Y-64907457D01*
X124476078Y-64907932D01*
X124487752Y-64907948D01*
X124538005Y-64907093D01*
X124581786Y-64904528D01*
X124567246Y-64857159D01*
X124566154Y-64854214D01*
X124548505Y-64807081D01*
X124529900Y-64757507D01*
X124516573Y-64722323D01*
X124454047Y-64563565D01*
X124447208Y-64551109D01*
X124427304Y-64597179D01*
X124416922Y-64621939D01*
X124396482Y-64672589D01*
X124377173Y-64722491D01*
X124360295Y-64769145D01*
X124353663Y-64789002D01*
X124337528Y-64835831D01*
X124335101Y-64842491D01*
X124323133Y-64879616D01*
X124316050Y-64901109D01*
X124280154Y-64901109D01*
X124285764Y-64885722D01*
X124350244Y-64705959D01*
X124367612Y-64658732D01*
X124385869Y-64610189D01*
X124406227Y-64556519D01*
X124423272Y-64511786D01*
X124440307Y-64463736D01*
X124455658Y-64417132D01*
X124458199Y-64409204D01*
X124478227Y-64407739D01*
X124502163Y-64408471D01*
G37*
G36*
X124973796Y-65300202D02*
G01*
X125013607Y-65292630D01*
X125062107Y-65281934D01*
X125065631Y-65279685D01*
X125074180Y-65245003D01*
X125075401Y-65222533D01*
X125076133Y-65190537D01*
X125074668Y-64998073D01*
X125065223Y-64949516D01*
X125063921Y-64948004D01*
X125018217Y-64927670D01*
X124995045Y-64923579D01*
X124995045Y-64900132D01*
X125041695Y-64881233D01*
X125071981Y-64860321D01*
X125105934Y-64822843D01*
X125132782Y-64778084D01*
X125137927Y-64767264D01*
X125161374Y-64767997D01*
X125163328Y-64810983D01*
X125163328Y-64853482D01*
X125164061Y-64864961D01*
X125183356Y-64851039D01*
X125225122Y-64822829D01*
X125267864Y-64800237D01*
X125313485Y-64781844D01*
X125344801Y-64772882D01*
X125392916Y-64767264D01*
X125442147Y-64773704D01*
X125487087Y-64794770D01*
X125489637Y-64796573D01*
X125526207Y-64832792D01*
X125542149Y-64865450D01*
X125550330Y-64915031D01*
X125553369Y-64968764D01*
X125554117Y-65022742D01*
X125554117Y-65123126D01*
X125553140Y-65149748D01*
X125552164Y-65199717D01*
X125552163Y-65201528D01*
X125554308Y-65251049D01*
X125556315Y-65260879D01*
X125574145Y-65278220D01*
X125623894Y-65286986D01*
X125651081Y-65298736D01*
X125651081Y-65306308D01*
X125646929Y-65330000D01*
X125633984Y-65330000D01*
X125543126Y-65330000D01*
X125453977Y-65330732D01*
X125403503Y-65331134D01*
X125362630Y-65330000D01*
X125358478Y-65312170D01*
X125363363Y-65298736D01*
X125411262Y-65288347D01*
X125415387Y-65287990D01*
X125442986Y-65283838D01*
X125461549Y-65273091D01*
X125469853Y-65245980D01*
X125468387Y-65227173D01*
X125466824Y-65177578D01*
X125466144Y-65128346D01*
X125465701Y-65072323D01*
X125465701Y-65037152D01*
X125466922Y-64983175D01*
X125463440Y-64933973D01*
X125448500Y-64885843D01*
X125431263Y-64863007D01*
X125386550Y-64837089D01*
X125335764Y-64829790D01*
X125284725Y-64836204D01*
X125245882Y-64850062D01*
X125202590Y-64875341D01*
X125163224Y-64908135D01*
X125160642Y-64910635D01*
X125159199Y-64960189D01*
X125159176Y-64966078D01*
X125161374Y-65115799D01*
X125161588Y-65168753D01*
X125162456Y-65219019D01*
X125164794Y-65259658D01*
X125169678Y-65274556D01*
X125191416Y-65283349D01*
X125229518Y-65292875D01*
X125258094Y-65300202D01*
X125276657Y-65315833D01*
X125275924Y-65331465D01*
X125203872Y-65331465D01*
X125055617Y-65330000D01*
X125005891Y-65331259D01*
X124990160Y-65331465D01*
X124973063Y-65331465D01*
X124971598Y-65319253D01*
X124973796Y-65300202D01*
G37*
G36*
X125759281Y-64459518D02*
G01*
X125776866Y-64423126D01*
X125819120Y-64407739D01*
X125863817Y-64425080D01*
X125883112Y-64462205D01*
X125863817Y-64499574D01*
X125819120Y-64517159D01*
X125776378Y-64501284D01*
X125759281Y-64459518D01*
G37*
G36*
X125701639Y-64876685D02*
G01*
X125702372Y-64853237D01*
X125747755Y-64834732D01*
X125750488Y-64833210D01*
X125788865Y-64802572D01*
X125802267Y-64788513D01*
X125832817Y-64748194D01*
X125847941Y-64721346D01*
X125860886Y-64719637D01*
X125869190Y-64720369D01*
X125872121Y-64767264D01*
X125870655Y-64797306D01*
X125870655Y-64832721D01*
X125871388Y-65025673D01*
X125869190Y-65229860D01*
X125877494Y-65264298D01*
X125922517Y-65283811D01*
X125930495Y-65286036D01*
X125971772Y-65298736D01*
X125973726Y-65312658D01*
X125970307Y-65330000D01*
X125919234Y-65330000D01*
X125901674Y-65330000D01*
X125851841Y-65330000D01*
X125825959Y-65330000D01*
X125774658Y-65330000D01*
X125722279Y-65330000D01*
X125716050Y-65330000D01*
X125676238Y-65330000D01*
X125665247Y-65327557D01*
X125661828Y-65317299D01*
X125674773Y-65298736D01*
X125725449Y-65288156D01*
X125744870Y-65284326D01*
X125773691Y-65271870D01*
X125785415Y-65230104D01*
X125786249Y-65177423D01*
X125786600Y-65123312D01*
X125786789Y-65064187D01*
X125786867Y-65005930D01*
X125786880Y-64967055D01*
X125783924Y-64917641D01*
X125782728Y-64913565D01*
X125764410Y-64896468D01*
X125715859Y-64879808D01*
X125701639Y-64876685D01*
G37*
G36*
X126019399Y-65329023D02*
G01*
X126017934Y-65298736D01*
X126028192Y-65293607D01*
X126062875Y-65290676D01*
X126100488Y-65277243D01*
X126107320Y-65228316D01*
X126108060Y-65183942D01*
X126109281Y-64914054D01*
X126108060Y-64866427D01*
X126109281Y-64820509D01*
X126110746Y-64776301D01*
X126108060Y-64657355D01*
X126108792Y-64553551D01*
X126098046Y-64505436D01*
X126048541Y-64489837D01*
X126022819Y-64485896D01*
X126022819Y-64472951D01*
X126023551Y-64454633D01*
X126073129Y-64444737D01*
X126092916Y-64439246D01*
X126140748Y-64420994D01*
X126173272Y-64407739D01*
X126194521Y-64407739D01*
X126193789Y-64426301D01*
X126193789Y-64484187D01*
X126193056Y-64513007D01*
X126195254Y-64565519D01*
X126194521Y-64644654D01*
X126195254Y-64776545D01*
X126193056Y-64940188D01*
X126193056Y-64990746D01*
X126193789Y-65016636D01*
X126201360Y-65017369D01*
X126248743Y-64999783D01*
X126292117Y-64967783D01*
X126332242Y-64937108D01*
X126370962Y-64905198D01*
X126384054Y-64892805D01*
X126411653Y-64852993D01*
X126402616Y-64835408D01*
X126356699Y-64821730D01*
X126340090Y-64818555D01*
X126319574Y-64814159D01*
X126318108Y-64803656D01*
X126321528Y-64782896D01*
X126373994Y-64782896D01*
X126422950Y-64782896D01*
X126473828Y-64782896D01*
X126510327Y-64782896D01*
X126560319Y-64783516D01*
X126607292Y-64785094D01*
X126607292Y-64794619D01*
X126603872Y-64807564D01*
X126571632Y-64814159D01*
X126522674Y-64827340D01*
X126506908Y-64835163D01*
X126463439Y-64862710D01*
X126422240Y-64893004D01*
X126397732Y-64912833D01*
X126359244Y-64944622D01*
X126339357Y-64960216D01*
X126314689Y-64980000D01*
X126323726Y-64992456D01*
X126334473Y-65005889D01*
X126364270Y-65040572D01*
X126398983Y-65080292D01*
X126432269Y-65119211D01*
X126464662Y-65158488D01*
X126474180Y-65170509D01*
X126500314Y-65203237D01*
X126531835Y-65240675D01*
X126562840Y-65274801D01*
X126608441Y-65295898D01*
X126619748Y-65298736D01*
X126650767Y-65306064D01*
X126653454Y-65321695D01*
X126652721Y-65330000D01*
X126602556Y-65330000D01*
X126582623Y-65330000D01*
X126570411Y-65330000D01*
X126379169Y-65330000D01*
X126364270Y-65330000D01*
X126349616Y-65326580D01*
X126347662Y-65314368D01*
X126347662Y-65308262D01*
X126355233Y-65298736D01*
X126406385Y-65293953D01*
X126434124Y-65289699D01*
X126445847Y-65281884D01*
X126425819Y-65243293D01*
X126394124Y-65204045D01*
X126358384Y-65162257D01*
X126326413Y-65125568D01*
X126293360Y-65088955D01*
X126260711Y-65058157D01*
X126219923Y-65048632D01*
X126193789Y-65048632D01*
X126191616Y-65098932D01*
X126191126Y-65150520D01*
X126191102Y-65167334D01*
X126192718Y-65219307D01*
X126200839Y-65268835D01*
X126204780Y-65277976D01*
X126240439Y-65295317D01*
X126277076Y-65307041D01*
X126283914Y-65330000D01*
X126233392Y-65329338D01*
X126214549Y-65329267D01*
X126164006Y-65329474D01*
X126115631Y-65330000D01*
X126065758Y-65330000D01*
X126064584Y-65330000D01*
X126019399Y-65329023D01*
G37*
G36*
X127010995Y-64772126D02*
G01*
X127058866Y-64789589D01*
X127064026Y-64792665D01*
X127104081Y-64823077D01*
X127136940Y-64863042D01*
X127146092Y-64879127D01*
X127165551Y-64926601D01*
X127173203Y-64975603D01*
X127173203Y-64986106D01*
X126897697Y-64986106D01*
X126845429Y-64986106D01*
X126795304Y-64986106D01*
X126780949Y-64986106D01*
X126774598Y-65013461D01*
X126775331Y-65020300D01*
X126775331Y-65026894D01*
X126774598Y-65059623D01*
X126782043Y-65108199D01*
X126799354Y-65156071D01*
X126800976Y-65159762D01*
X126826316Y-65203191D01*
X126861899Y-65239683D01*
X126876692Y-65250132D01*
X126924323Y-65271710D01*
X126972591Y-65281350D01*
X126999302Y-65283105D01*
X127048990Y-65277426D01*
X127061584Y-65274312D01*
X127107471Y-65253521D01*
X127127529Y-65242072D01*
X127177110Y-65204947D01*
X127181263Y-65230104D01*
X127180530Y-65239630D01*
X127142954Y-65274586D01*
X127102128Y-65301423D01*
X127057438Y-65323040D01*
X127009177Y-65339236D01*
X127006140Y-65340013D01*
X126956915Y-65345187D01*
X126929204Y-65345631D01*
X126877716Y-65340048D01*
X126832972Y-65325847D01*
X126788301Y-65300893D01*
X126750672Y-65267339D01*
X126722575Y-65229371D01*
X126701451Y-65185059D01*
X126688152Y-65135166D01*
X126682871Y-65085490D01*
X126682519Y-65067927D01*
X126687829Y-65018759D01*
X126693754Y-64990990D01*
X126705637Y-64954842D01*
X126789741Y-64954842D01*
X126821981Y-64954842D01*
X126873454Y-64954842D01*
X126927889Y-64954842D01*
X126980096Y-64954842D01*
X127031053Y-64954842D01*
X127064515Y-64948492D01*
X127076971Y-64921137D01*
X127066312Y-64872491D01*
X127063049Y-64864717D01*
X127032584Y-64824049D01*
X127020795Y-64815868D01*
X126972939Y-64799611D01*
X126954605Y-64798527D01*
X126903587Y-64806146D01*
X126860016Y-64829004D01*
X126826866Y-64863007D01*
X126800219Y-64907515D01*
X126789741Y-64954842D01*
X126705637Y-64954842D01*
X126709752Y-64942325D01*
X126731163Y-64897238D01*
X126734787Y-64890607D01*
X126763142Y-64850478D01*
X126783635Y-64831256D01*
X126824406Y-64802065D01*
X126855687Y-64785582D01*
X126903986Y-64771844D01*
X126955810Y-64767282D01*
X126959490Y-64767264D01*
X127010995Y-64772126D01*
G37*
G36*
X127398883Y-64626580D02*
G01*
X127420132Y-64627313D01*
X127423063Y-64695945D01*
X127421598Y-64784849D01*
X127438206Y-64785582D01*
X127488463Y-64783809D01*
X127506106Y-64782896D01*
X127556722Y-64780775D01*
X127567899Y-64780697D01*
X127609176Y-64781430D01*
X127610642Y-64801458D01*
X127606489Y-64826615D01*
X127594766Y-64826615D01*
X127488276Y-64829790D01*
X127435519Y-64831256D01*
X127423063Y-64832721D01*
X127417445Y-64874487D01*
X127419644Y-64982930D01*
X127418178Y-65173684D01*
X127420788Y-65222960D01*
X127434493Y-65270084D01*
X127436741Y-65273335D01*
X127479695Y-65298116D01*
X127490474Y-65298736D01*
X127540247Y-65291964D01*
X127557641Y-65288478D01*
X127598185Y-65267473D01*
X127604535Y-65267473D01*
X127614305Y-65271137D01*
X127618213Y-65280907D01*
X127617480Y-65285547D01*
X127579372Y-65316731D01*
X127549825Y-65331221D01*
X127502242Y-65342465D01*
X127452393Y-65345617D01*
X127448464Y-65345631D01*
X127398604Y-65337140D01*
X127374459Y-65323893D01*
X127342539Y-65286524D01*
X127337090Y-65272114D01*
X127330801Y-65220533D01*
X127329226Y-65171579D01*
X127329030Y-65141933D01*
X127331716Y-64978290D01*
X127330983Y-64899644D01*
X127330983Y-64870579D01*
X127329762Y-64829790D01*
X127318039Y-64829790D01*
X127261618Y-64829790D01*
X127256245Y-64829790D01*
X127244766Y-64827348D01*
X127241102Y-64820997D01*
X127246231Y-64810739D01*
X127277494Y-64798527D01*
X127317541Y-64770548D01*
X127319016Y-64769218D01*
X127351561Y-64732570D01*
X127359071Y-64721346D01*
X127379739Y-64674809D01*
X127382519Y-64667613D01*
X127398883Y-64626580D01*
G37*
G36*
X128505792Y-64494689D02*
G01*
X128511034Y-64543401D01*
X128511165Y-64546468D01*
X128508478Y-64606796D01*
X128505195Y-64655679D01*
X128505059Y-64656378D01*
X128494801Y-64659309D01*
X128488695Y-64657843D01*
X128473915Y-64606963D01*
X128451828Y-64560309D01*
X128420645Y-64521000D01*
X128414200Y-64515205D01*
X128371553Y-64487820D01*
X128322380Y-64473073D01*
X128285973Y-64470265D01*
X128235530Y-64475893D01*
X128188005Y-64494869D01*
X128157501Y-64517892D01*
X128125083Y-64558971D01*
X128109192Y-64605209D01*
X128107431Y-64628290D01*
X128117289Y-64677329D01*
X128142358Y-64716706D01*
X128184055Y-64751384D01*
X128228874Y-64779655D01*
X128279260Y-64807774D01*
X128321632Y-64829790D01*
X128366726Y-64853292D01*
X128410934Y-64877518D01*
X128455203Y-64903850D01*
X128478925Y-64919672D01*
X128518195Y-64953403D01*
X128548725Y-64994588D01*
X128550244Y-64997341D01*
X128568379Y-65044113D01*
X128574400Y-65092621D01*
X128574424Y-65096015D01*
X128569066Y-65146172D01*
X128552991Y-65194063D01*
X128536322Y-65224731D01*
X128504002Y-65265638D01*
X128464194Y-65298233D01*
X128433496Y-65315345D01*
X128384202Y-65332588D01*
X128330773Y-65342052D01*
X128275673Y-65345513D01*
X128262526Y-65345631D01*
X128211036Y-65343525D01*
X128160705Y-65337208D01*
X128111534Y-65326678D01*
X128084717Y-65319009D01*
X128037395Y-65301549D01*
X128023656Y-65293363D01*
X128012665Y-65271137D01*
X128014131Y-65252330D01*
X128019501Y-65201076D01*
X128023244Y-65149061D01*
X128024145Y-65121660D01*
X128029030Y-65084535D01*
X128039288Y-65079895D01*
X128049057Y-65084291D01*
X128054431Y-65100900D01*
X128065341Y-65150931D01*
X128088606Y-65197528D01*
X128120108Y-65236529D01*
X128132833Y-65248911D01*
X128173731Y-65280553D01*
X128222618Y-65303565D01*
X128275130Y-65313793D01*
X128291591Y-65314368D01*
X128340545Y-65309431D01*
X128388623Y-65293280D01*
X128391486Y-65291898D01*
X128432152Y-65264176D01*
X128462805Y-65226441D01*
X128483006Y-65181647D01*
X128488695Y-65143154D01*
X128480108Y-65093322D01*
X128454348Y-65047785D01*
X128449616Y-65042037D01*
X128413259Y-65008795D01*
X128369645Y-64979106D01*
X128327095Y-64954466D01*
X128292079Y-64936036D01*
X128244406Y-64911304D01*
X128199568Y-64886845D01*
X128154716Y-64859844D01*
X128138450Y-64848353D01*
X128099123Y-64813857D01*
X128065744Y-64774704D01*
X128051744Y-64752854D01*
X128034562Y-64705069D01*
X128030495Y-64662240D01*
X128036465Y-64611900D01*
X128054374Y-64566120D01*
X128084224Y-64524900D01*
X128105966Y-64503970D01*
X128147029Y-64475546D01*
X128194504Y-64455244D01*
X128248390Y-64443062D01*
X128300800Y-64439065D01*
X128308688Y-64439002D01*
X128358547Y-64441200D01*
X128409858Y-64449321D01*
X128429588Y-64454633D01*
X128474362Y-64474646D01*
X128505792Y-64494689D01*
G37*
G36*
X128727320Y-64459518D02*
G01*
X128744905Y-64423126D01*
X128787159Y-64407739D01*
X128831856Y-64425080D01*
X128851151Y-64462205D01*
X128831856Y-64499574D01*
X128787159Y-64517159D01*
X128744417Y-64501284D01*
X128727320Y-64459518D01*
G37*
G36*
X128669678Y-64876685D02*
G01*
X128670411Y-64853237D01*
X128715794Y-64834732D01*
X128718527Y-64833210D01*
X128756904Y-64802572D01*
X128770307Y-64788513D01*
X128800856Y-64748194D01*
X128815980Y-64721346D01*
X128828925Y-64719637D01*
X128837229Y-64720369D01*
X128840160Y-64767264D01*
X128838695Y-64797306D01*
X128838695Y-64832721D01*
X128839427Y-65025673D01*
X128837229Y-65229860D01*
X128845533Y-65264298D01*
X128890556Y-65283811D01*
X128898534Y-65286036D01*
X128939811Y-65298736D01*
X128941765Y-65312658D01*
X128938346Y-65330000D01*
X128887273Y-65330000D01*
X128869713Y-65330000D01*
X128819880Y-65330000D01*
X128793998Y-65330000D01*
X128742697Y-65330000D01*
X128690318Y-65330000D01*
X128684089Y-65330000D01*
X128644277Y-65330000D01*
X128633286Y-65327557D01*
X128629867Y-65317299D01*
X128642812Y-65298736D01*
X128693488Y-65288156D01*
X128712909Y-65284326D01*
X128741730Y-65271870D01*
X128753454Y-65230104D01*
X128754288Y-65177423D01*
X128754639Y-65123312D01*
X128754828Y-65064187D01*
X128754906Y-65005930D01*
X128754919Y-64967055D01*
X128751963Y-64917641D01*
X128750767Y-64913565D01*
X128732449Y-64896468D01*
X128683898Y-64879808D01*
X128669678Y-64876685D01*
G37*
G36*
X128976448Y-65300202D02*
G01*
X129016259Y-65292630D01*
X129064759Y-65281934D01*
X129068283Y-65279685D01*
X129076831Y-65245003D01*
X129078053Y-65222533D01*
X129078785Y-65190537D01*
X129077320Y-64998073D01*
X129067874Y-64949516D01*
X129066573Y-64948004D01*
X129020869Y-64927670D01*
X128997697Y-64923579D01*
X128997697Y-64900132D01*
X129044347Y-64881233D01*
X129074633Y-64860321D01*
X129108586Y-64822843D01*
X129135434Y-64778084D01*
X129140579Y-64767264D01*
X129164026Y-64767997D01*
X129165980Y-64810983D01*
X129165980Y-64853482D01*
X129166713Y-64864961D01*
X129186008Y-64851039D01*
X129227773Y-64822829D01*
X129270516Y-64800237D01*
X129316137Y-64781844D01*
X129347452Y-64772882D01*
X129395568Y-64767264D01*
X129444798Y-64773704D01*
X129489739Y-64794770D01*
X129492288Y-64796573D01*
X129528859Y-64832792D01*
X129544801Y-64865450D01*
X129552982Y-64915031D01*
X129556021Y-64968764D01*
X129556769Y-65022742D01*
X129556769Y-65123126D01*
X129555792Y-65149748D01*
X129554816Y-65199717D01*
X129554815Y-65201528D01*
X129556960Y-65251049D01*
X129558967Y-65260879D01*
X129576796Y-65278220D01*
X129626545Y-65286986D01*
X129653733Y-65298736D01*
X129653733Y-65306308D01*
X129649581Y-65330000D01*
X129636636Y-65330000D01*
X129545778Y-65330000D01*
X129456629Y-65330732D01*
X129406155Y-65331134D01*
X129365282Y-65330000D01*
X129361130Y-65312170D01*
X129366015Y-65298736D01*
X129413914Y-65288347D01*
X129418039Y-65287990D01*
X129445638Y-65283838D01*
X129464200Y-65273091D01*
X129472505Y-65245980D01*
X129471039Y-65227173D01*
X129469476Y-65177578D01*
X129468795Y-65128346D01*
X129468353Y-65072323D01*
X129468353Y-65037152D01*
X129469574Y-64983175D01*
X129466091Y-64933973D01*
X129451152Y-64885843D01*
X129433914Y-64863007D01*
X129389202Y-64837089D01*
X129338415Y-64829790D01*
X129287376Y-64836204D01*
X129248534Y-64850062D01*
X129205242Y-64875341D01*
X129165876Y-64908135D01*
X129163293Y-64910635D01*
X129161851Y-64960189D01*
X129161828Y-64966078D01*
X129164026Y-65115799D01*
X129164240Y-65168753D01*
X129165108Y-65219019D01*
X129167445Y-65259658D01*
X129172330Y-65274556D01*
X129194068Y-65283349D01*
X129232170Y-65292875D01*
X129260746Y-65300202D01*
X129279309Y-65315833D01*
X129278576Y-65331465D01*
X129206524Y-65331465D01*
X129058269Y-65330000D01*
X129008543Y-65331259D01*
X128992812Y-65331465D01*
X128975715Y-65331465D01*
X128974249Y-65319253D01*
X128976448Y-65300202D01*
G37*
G36*
X130011306Y-64770973D02*
G01*
X130046475Y-64778988D01*
X130091401Y-64798451D01*
X130111688Y-64809518D01*
X130143928Y-64826615D01*
X130168597Y-64829790D01*
X130219773Y-64829790D01*
X130225261Y-64829790D01*
X130274178Y-64829790D01*
X130278506Y-64829790D01*
X130304640Y-64834919D01*
X130312944Y-64873754D01*
X130307083Y-64887676D01*
X130290230Y-64892316D01*
X130239933Y-64886752D01*
X130226727Y-64884501D01*
X130177623Y-64876960D01*
X130172749Y-64876685D01*
X130159804Y-64878150D01*
X130178939Y-64923728D01*
X130188896Y-64972210D01*
X130189357Y-64984396D01*
X130181603Y-65033183D01*
X130160247Y-65080585D01*
X130158339Y-65083803D01*
X130126876Y-65124054D01*
X130086344Y-65155049D01*
X130073098Y-65162205D01*
X130025420Y-65180738D01*
X129973818Y-65189077D01*
X129963433Y-65189316D01*
X129939986Y-65188339D01*
X129890281Y-65193418D01*
X129840539Y-65210248D01*
X129823726Y-65219113D01*
X129798325Y-65247690D01*
X129822993Y-65275045D01*
X129868930Y-65291881D01*
X129917454Y-65301851D01*
X129967958Y-65308219D01*
X130026688Y-65312578D01*
X130070411Y-65314368D01*
X130120521Y-65318264D01*
X130169101Y-65328152D01*
X130193265Y-65337083D01*
X130235847Y-65365917D01*
X130259455Y-65396678D01*
X130278217Y-65444149D01*
X130281926Y-65477522D01*
X130273607Y-65528538D01*
X130250833Y-65572763D01*
X130244068Y-65581814D01*
X130207017Y-65617727D01*
X130161296Y-65645582D01*
X130129518Y-65659483D01*
X130079214Y-65675325D01*
X130030148Y-65684567D01*
X129977488Y-65689056D01*
X129952930Y-65689525D01*
X129901105Y-65687769D01*
X129850283Y-65681598D01*
X129798924Y-65668020D01*
X129783182Y-65661437D01*
X129737627Y-65636092D01*
X129700035Y-65602676D01*
X129698429Y-65600621D01*
X129675949Y-65555850D01*
X129673517Y-65535652D01*
X129679349Y-65516113D01*
X129753140Y-65516113D01*
X129764802Y-65564717D01*
X129796920Y-65605847D01*
X129799790Y-65608436D01*
X129842089Y-65634712D01*
X129890828Y-65651255D01*
X129940199Y-65657824D01*
X129957815Y-65658262D01*
X130008706Y-65655068D01*
X130059527Y-65645485D01*
X130093370Y-65635547D01*
X130138994Y-65615947D01*
X130179285Y-65586134D01*
X130192288Y-65571067D01*
X130216682Y-65528001D01*
X130223551Y-65492177D01*
X130212561Y-65446503D01*
X130182519Y-65409378D01*
X130138602Y-65387832D01*
X130132937Y-65386175D01*
X130082628Y-65377894D01*
X130070411Y-65376894D01*
X130018342Y-65373688D01*
X129968925Y-65370969D01*
X129928995Y-65369567D01*
X129880328Y-65375628D01*
X129831515Y-65396064D01*
X129797836Y-65420858D01*
X129765754Y-65461616D01*
X129753314Y-65509243D01*
X129753140Y-65516113D01*
X129679349Y-65516113D01*
X129687648Y-65488308D01*
X129700872Y-65465799D01*
X129736288Y-65428459D01*
X129779923Y-65398006D01*
X129814933Y-65378115D01*
X129849860Y-65358820D01*
X129802519Y-65339257D01*
X129797103Y-65337083D01*
X129754483Y-65309178D01*
X129731158Y-65289455D01*
X129717480Y-65254773D01*
X129727739Y-65227173D01*
X129771695Y-65203533D01*
X129787334Y-65198353D01*
X129834814Y-65182283D01*
X129860851Y-65171486D01*
X129832763Y-65153900D01*
X129792887Y-65124563D01*
X129759308Y-65085397D01*
X129738520Y-65040216D01*
X129730525Y-64989020D01*
X129730425Y-64982198D01*
X129730528Y-64981221D01*
X129822505Y-64981221D01*
X129826583Y-65032218D01*
X129841067Y-65079895D01*
X129869613Y-65121435D01*
X129891870Y-65138757D01*
X129938593Y-65156526D01*
X129957083Y-65158053D01*
X130005515Y-65149731D01*
X130048692Y-65122347D01*
X130056245Y-65114577D01*
X130081863Y-65071598D01*
X130093340Y-65023582D01*
X130095812Y-64981953D01*
X130091782Y-64929999D01*
X130078036Y-64882602D01*
X130054535Y-64845422D01*
X130015313Y-64813365D01*
X129965921Y-64798939D01*
X129955129Y-64798527D01*
X129904098Y-64807082D01*
X129862807Y-64835236D01*
X129856210Y-64843224D01*
X129834387Y-64887443D01*
X129824611Y-64937517D01*
X129822505Y-64981221D01*
X129730528Y-64981221D01*
X129735564Y-64933586D01*
X129753329Y-64884786D01*
X129783783Y-64841471D01*
X129795394Y-64829546D01*
X129834837Y-64799439D01*
X129880075Y-64779185D01*
X129931110Y-64768785D01*
X129961967Y-64767264D01*
X130011306Y-64770973D01*
G37*
G36*
X130316852Y-65298736D02*
G01*
X130367571Y-65289074D01*
X130409665Y-65277243D01*
X130417236Y-65255750D01*
X130416503Y-65211297D01*
X130417236Y-65132651D01*
X130415771Y-64932128D01*
X130416503Y-64857390D01*
X130416503Y-64804145D01*
X130418457Y-64738932D01*
X130418346Y-64685757D01*
X130417933Y-64634704D01*
X130416817Y-64582287D01*
X130415282Y-64555750D01*
X130403558Y-64518136D01*
X130356936Y-64497309D01*
X130312700Y-64485896D01*
X130312700Y-64479546D01*
X130314166Y-64454633D01*
X130332484Y-64451702D01*
X130349825Y-64449016D01*
X130400657Y-64434551D01*
X130447186Y-64417829D01*
X130468527Y-64407739D01*
X130502233Y-64407739D01*
X130503456Y-64460820D01*
X130503685Y-64512760D01*
X130503698Y-64531570D01*
X130502965Y-64620230D01*
X130503698Y-64735024D01*
X130500767Y-64876196D01*
X130502233Y-64904284D01*
X130535618Y-64864567D01*
X130565491Y-64833698D01*
X130607154Y-64803172D01*
X130641695Y-64785094D01*
X130688621Y-64770677D01*
X130726936Y-64767264D01*
X130776724Y-64774133D01*
X130824494Y-64797558D01*
X130861560Y-64833278D01*
X130864933Y-64837606D01*
X130887198Y-64883870D01*
X130895467Y-64936208D01*
X130895952Y-64954598D01*
X130893754Y-65023475D01*
X130894487Y-65062065D01*
X130891800Y-65128988D01*
X130890270Y-65178224D01*
X130889113Y-65227662D01*
X130890334Y-65275045D01*
X130929413Y-65283838D01*
X130978231Y-65295241D01*
X130989986Y-65298736D01*
X130989253Y-65330000D01*
X130842951Y-65330000D01*
X130791676Y-65330000D01*
X130775540Y-65330000D01*
X130736461Y-65330000D01*
X130721318Y-65330000D01*
X130717899Y-65318764D01*
X130717899Y-65312170D01*
X130753803Y-65294584D01*
X130795080Y-65285059D01*
X130804605Y-65270648D01*
X130807475Y-65217404D01*
X130809047Y-65164220D01*
X130810287Y-65112711D01*
X130810711Y-65093328D01*
X130812177Y-65042526D01*
X130811917Y-64990652D01*
X130806828Y-64941371D01*
X130799720Y-64909413D01*
X130774963Y-64866416D01*
X130756001Y-64851528D01*
X130709461Y-64832847D01*
X130677599Y-64829790D01*
X130628515Y-64837409D01*
X130607501Y-64845910D01*
X130566494Y-64874962D01*
X130553035Y-64886943D01*
X130518717Y-64923098D01*
X130509071Y-64937013D01*
X130501011Y-64982686D01*
X130501500Y-65030802D01*
X130500279Y-65081360D01*
X130501378Y-65132148D01*
X130502233Y-65167578D01*
X130501500Y-65211786D01*
X130502965Y-65260146D01*
X130504919Y-65275289D01*
X130601884Y-65298736D01*
X130624598Y-65308262D01*
X130626552Y-65317055D01*
X130623133Y-65330000D01*
X130592847Y-65330000D01*
X130539357Y-65330000D01*
X130421144Y-65330000D01*
X130332484Y-65330000D01*
X130311967Y-65327801D01*
X130311235Y-65320230D01*
X130316852Y-65298736D01*
G37*
D11*
X150869673Y-65367219D02*
X150869673Y-64367219D01*
X151917291Y-65271980D02*
X151869672Y-65319600D01*
X151869672Y-65319600D02*
X151726815Y-65367219D01*
X151726815Y-65367219D02*
X151631577Y-65367219D01*
X151631577Y-65367219D02*
X151488720Y-65319600D01*
X151488720Y-65319600D02*
X151393482Y-65224361D01*
X151393482Y-65224361D02*
X151345863Y-65129123D01*
X151345863Y-65129123D02*
X151298244Y-64938647D01*
X151298244Y-64938647D02*
X151298244Y-64795790D01*
X151298244Y-64795790D02*
X151345863Y-64605314D01*
X151345863Y-64605314D02*
X151393482Y-64510076D01*
X151393482Y-64510076D02*
X151488720Y-64414838D01*
X151488720Y-64414838D02*
X151631577Y-64367219D01*
X151631577Y-64367219D02*
X151726815Y-64367219D01*
X151726815Y-64367219D02*
X151869672Y-64414838D01*
X151869672Y-64414838D02*
X151917291Y-64462457D01*
X152345863Y-64986266D02*
X153107768Y-64986266D01*
X154060148Y-64367219D02*
X153583958Y-64367219D01*
X153583958Y-64367219D02*
X153536339Y-64843409D01*
X153536339Y-64843409D02*
X153583958Y-64795790D01*
X153583958Y-64795790D02*
X153679196Y-64748171D01*
X153679196Y-64748171D02*
X153917291Y-64748171D01*
X153917291Y-64748171D02*
X154012529Y-64795790D01*
X154012529Y-64795790D02*
X154060148Y-64843409D01*
X154060148Y-64843409D02*
X154107767Y-64938647D01*
X154107767Y-64938647D02*
X154107767Y-65176742D01*
X154107767Y-65176742D02*
X154060148Y-65271980D01*
X154060148Y-65271980D02*
X154012529Y-65319600D01*
X154012529Y-65319600D02*
X153917291Y-65367219D01*
X153917291Y-65367219D02*
X153679196Y-65367219D01*
X153679196Y-65367219D02*
X153583958Y-65319600D01*
X153583958Y-65319600D02*
X153536339Y-65271980D01*
X155012529Y-64367219D02*
X154536339Y-64367219D01*
X154536339Y-64367219D02*
X154488720Y-64843409D01*
X154488720Y-64843409D02*
X154536339Y-64795790D01*
X154536339Y-64795790D02*
X154631577Y-64748171D01*
X154631577Y-64748171D02*
X154869672Y-64748171D01*
X154869672Y-64748171D02*
X154964910Y-64795790D01*
X154964910Y-64795790D02*
X155012529Y-64843409D01*
X155012529Y-64843409D02*
X155060148Y-64938647D01*
X155060148Y-64938647D02*
X155060148Y-65176742D01*
X155060148Y-65176742D02*
X155012529Y-65271980D01*
X155012529Y-65271980D02*
X154964910Y-65319600D01*
X154964910Y-65319600D02*
X154869672Y-65367219D01*
X154869672Y-65367219D02*
X154631577Y-65367219D01*
X154631577Y-65367219D02*
X154536339Y-65319600D01*
X154536339Y-65319600D02*
X154488720Y-65271980D01*
X155964910Y-64367219D02*
X155488720Y-64367219D01*
X155488720Y-64367219D02*
X155441101Y-64843409D01*
X155441101Y-64843409D02*
X155488720Y-64795790D01*
X155488720Y-64795790D02*
X155583958Y-64748171D01*
X155583958Y-64748171D02*
X155822053Y-64748171D01*
X155822053Y-64748171D02*
X155917291Y-64795790D01*
X155917291Y-64795790D02*
X155964910Y-64843409D01*
X155964910Y-64843409D02*
X156012529Y-64938647D01*
X156012529Y-64938647D02*
X156012529Y-65176742D01*
X156012529Y-65176742D02*
X155964910Y-65271980D01*
X155964910Y-65271980D02*
X155917291Y-65319600D01*
X155917291Y-65319600D02*
X155822053Y-65367219D01*
X155822053Y-65367219D02*
X155583958Y-65367219D01*
X155583958Y-65367219D02*
X155488720Y-65319600D01*
X155488720Y-65319600D02*
X155441101Y-65271980D01*
D12*
X140238095Y-84054819D02*
X140238095Y-84864342D01*
X140238095Y-84864342D02*
X140285714Y-84959580D01*
X140285714Y-84959580D02*
X140333333Y-85007200D01*
X140333333Y-85007200D02*
X140428571Y-85054819D01*
X140428571Y-85054819D02*
X140619047Y-85054819D01*
X140619047Y-85054819D02*
X140714285Y-85007200D01*
X140714285Y-85007200D02*
X140761904Y-84959580D01*
X140761904Y-84959580D02*
X140809523Y-84864342D01*
X140809523Y-84864342D02*
X140809523Y-84054819D01*
X141809523Y-85054819D02*
X141238095Y-85054819D01*
X141523809Y-85054819D02*
X141523809Y-84054819D01*
X141523809Y-84054819D02*
X141428571Y-84197676D01*
X141428571Y-84197676D02*
X141333333Y-84292914D01*
X141333333Y-84292914D02*
X141238095Y-84340533D01*
X146788333Y-95374819D02*
X146455000Y-94898628D01*
X146216905Y-95374819D02*
X146216905Y-94374819D01*
X146216905Y-94374819D02*
X146597857Y-94374819D01*
X146597857Y-94374819D02*
X146693095Y-94422438D01*
X146693095Y-94422438D02*
X146740714Y-94470057D01*
X146740714Y-94470057D02*
X146788333Y-94565295D01*
X146788333Y-94565295D02*
X146788333Y-94708152D01*
X146788333Y-94708152D02*
X146740714Y-94803390D01*
X146740714Y-94803390D02*
X146693095Y-94851009D01*
X146693095Y-94851009D02*
X146597857Y-94898628D01*
X146597857Y-94898628D02*
X146216905Y-94898628D01*
X147169286Y-94470057D02*
X147216905Y-94422438D01*
X147216905Y-94422438D02*
X147312143Y-94374819D01*
X147312143Y-94374819D02*
X147550238Y-94374819D01*
X147550238Y-94374819D02*
X147645476Y-94422438D01*
X147645476Y-94422438D02*
X147693095Y-94470057D01*
X147693095Y-94470057D02*
X147740714Y-94565295D01*
X147740714Y-94565295D02*
X147740714Y-94660533D01*
X147740714Y-94660533D02*
X147693095Y-94803390D01*
X147693095Y-94803390D02*
X147121667Y-95374819D01*
X147121667Y-95374819D02*
X147740714Y-95374819D01*
X150874819Y-87211666D02*
X150398628Y-87544999D01*
X150874819Y-87783094D02*
X149874819Y-87783094D01*
X149874819Y-87783094D02*
X149874819Y-87402142D01*
X149874819Y-87402142D02*
X149922438Y-87306904D01*
X149922438Y-87306904D02*
X149970057Y-87259285D01*
X149970057Y-87259285D02*
X150065295Y-87211666D01*
X150065295Y-87211666D02*
X150208152Y-87211666D01*
X150208152Y-87211666D02*
X150303390Y-87259285D01*
X150303390Y-87259285D02*
X150351009Y-87306904D01*
X150351009Y-87306904D02*
X150398628Y-87402142D01*
X150398628Y-87402142D02*
X150398628Y-87783094D01*
X150874819Y-86259285D02*
X150874819Y-86830713D01*
X150874819Y-86544999D02*
X149874819Y-86544999D01*
X149874819Y-86544999D02*
X150017676Y-86640237D01*
X150017676Y-86640237D02*
X150112914Y-86735475D01*
X150112914Y-86735475D02*
X150160533Y-86830713D01*
X126954819Y-89833333D02*
X127669104Y-89833333D01*
X127669104Y-89833333D02*
X127811961Y-89880952D01*
X127811961Y-89880952D02*
X127907200Y-89976190D01*
X127907200Y-89976190D02*
X127954819Y-90119047D01*
X127954819Y-90119047D02*
X127954819Y-90214285D01*
X127954819Y-88833333D02*
X127954819Y-89404761D01*
X127954819Y-89119047D02*
X126954819Y-89119047D01*
X126954819Y-89119047D02*
X127097676Y-89214285D01*
X127097676Y-89214285D02*
X127192914Y-89309523D01*
X127192914Y-89309523D02*
X127240533Y-89404761D01*
X138333333Y-73987080D02*
X138285714Y-74034700D01*
X138285714Y-74034700D02*
X138142857Y-74082319D01*
X138142857Y-74082319D02*
X138047619Y-74082319D01*
X138047619Y-74082319D02*
X137904762Y-74034700D01*
X137904762Y-74034700D02*
X137809524Y-73939461D01*
X137809524Y-73939461D02*
X137761905Y-73844223D01*
X137761905Y-73844223D02*
X137714286Y-73653747D01*
X137714286Y-73653747D02*
X137714286Y-73510890D01*
X137714286Y-73510890D02*
X137761905Y-73320414D01*
X137761905Y-73320414D02*
X137809524Y-73225176D01*
X137809524Y-73225176D02*
X137904762Y-73129938D01*
X137904762Y-73129938D02*
X138047619Y-73082319D01*
X138047619Y-73082319D02*
X138142857Y-73082319D01*
X138142857Y-73082319D02*
X138285714Y-73129938D01*
X138285714Y-73129938D02*
X138333333Y-73177557D01*
X138714286Y-73177557D02*
X138761905Y-73129938D01*
X138761905Y-73129938D02*
X138857143Y-73082319D01*
X138857143Y-73082319D02*
X139095238Y-73082319D01*
X139095238Y-73082319D02*
X139190476Y-73129938D01*
X139190476Y-73129938D02*
X139238095Y-73177557D01*
X139238095Y-73177557D02*
X139285714Y-73272795D01*
X139285714Y-73272795D02*
X139285714Y-73368033D01*
X139285714Y-73368033D02*
X139238095Y-73510890D01*
X139238095Y-73510890D02*
X138666667Y-74082319D01*
X138666667Y-74082319D02*
X139285714Y-74082319D01*
X138333333Y-81487080D02*
X138285714Y-81534700D01*
X138285714Y-81534700D02*
X138142857Y-81582319D01*
X138142857Y-81582319D02*
X138047619Y-81582319D01*
X138047619Y-81582319D02*
X137904762Y-81534700D01*
X137904762Y-81534700D02*
X137809524Y-81439461D01*
X137809524Y-81439461D02*
X137761905Y-81344223D01*
X137761905Y-81344223D02*
X137714286Y-81153747D01*
X137714286Y-81153747D02*
X137714286Y-81010890D01*
X137714286Y-81010890D02*
X137761905Y-80820414D01*
X137761905Y-80820414D02*
X137809524Y-80725176D01*
X137809524Y-80725176D02*
X137904762Y-80629938D01*
X137904762Y-80629938D02*
X138047619Y-80582319D01*
X138047619Y-80582319D02*
X138142857Y-80582319D01*
X138142857Y-80582319D02*
X138285714Y-80629938D01*
X138285714Y-80629938D02*
X138333333Y-80677557D01*
X139285714Y-81582319D02*
X138714286Y-81582319D01*
X139000000Y-81582319D02*
X139000000Y-80582319D01*
X139000000Y-80582319D02*
X138904762Y-80725176D01*
X138904762Y-80725176D02*
X138809524Y-80820414D01*
X138809524Y-80820414D02*
X138714286Y-80868033D01*
D13*
%TO.C,U1*%
X141000000Y-85440000D02*
X139050000Y-85440000D01*
X141000000Y-85440000D02*
X142950000Y-85440000D01*
X141000000Y-90560000D02*
X139050000Y-90560000D01*
X141000000Y-90560000D02*
X142950000Y-90560000D01*
X138300000Y-85535000D02*
X138060000Y-85205000D01*
X138540000Y-85205000D01*
X138300000Y-85535000D01*
G36*
X138300000Y-85535000D02*
G01*
X138060000Y-85205000D01*
X138540000Y-85205000D01*
X138300000Y-85535000D01*
G37*
%TO.C,R2*%
X147584905Y-92250641D02*
G75*
G02*
X147487867Y-93700000I320095J-749359D01*
G01*
%TO.C,R1*%
X147750641Y-86415095D02*
G75*
G02*
X149200000Y-86512133I749359J320095D01*
G01*
%TO.C,J1*%
X128250000Y-92900000D02*
X129250000Y-92900000D01*
X128250000Y-92900000D02*
X128250000Y-91900000D01*
X130000000Y-92600000D02*
X130000000Y-91950000D01*
X131000000Y-92600000D02*
X131000000Y-91950000D01*
X129200000Y-91950000D02*
X129200000Y-89850000D01*
X132800000Y-91950000D02*
X129200000Y-91950000D01*
X128550000Y-89850000D02*
X129200000Y-89850000D01*
X132400000Y-89800000D02*
X132400000Y-89200000D01*
X132800000Y-89800000D02*
X132400000Y-89800000D01*
X132400000Y-89200000D02*
X132800000Y-89200000D01*
X128550000Y-89150000D02*
X129200000Y-89150000D01*
X129200000Y-87050000D02*
X129200000Y-89150000D01*
X129200000Y-87050000D02*
X132800000Y-87050000D01*
X130000000Y-87050000D02*
X130000000Y-86400000D01*
X131000000Y-87050000D02*
X131000000Y-86400000D01*
X132800000Y-87050000D02*
X132800000Y-91950000D01*
X128550000Y-92600000D02*
X133450000Y-92600000D01*
X133450000Y-86400000D01*
X128550000Y-86400000D01*
X128550000Y-92600000D01*
%TO.C,C2*%
X132240000Y-70257500D02*
X133380000Y-70257500D01*
X133380000Y-72627500D02*
X133380000Y-67887500D01*
X140620000Y-67887500D02*
X133380000Y-67887500D01*
X140620000Y-72627500D02*
X133380000Y-72627500D01*
X141370000Y-68637500D02*
X140620000Y-67887500D01*
X141370000Y-71877500D02*
X140620000Y-72627500D01*
X142120000Y-67887500D02*
X141370000Y-68637500D01*
X142120000Y-72627500D02*
X141370000Y-71877500D01*
X143620000Y-67887500D02*
X142120000Y-67887500D01*
X143620000Y-72627500D02*
X142120000Y-72627500D01*
X143620000Y-72627500D02*
X143620000Y-67887500D01*
X144620000Y-73207500D02*
X144620000Y-71707500D01*
X144760000Y-70257500D02*
X143620000Y-70257500D01*
X145370000Y-72457500D02*
X143870000Y-72457500D01*
%TO.C,C1*%
X145370000Y-79957500D02*
X143870000Y-79957500D01*
X144760000Y-77757500D02*
X143620000Y-77757500D01*
X144620000Y-80707500D02*
X144620000Y-79207500D01*
X143620000Y-80127500D02*
X143620000Y-75387500D01*
X143620000Y-80127500D02*
X142120000Y-80127500D01*
X143620000Y-75387500D02*
X142120000Y-75387500D01*
X142120000Y-80127500D02*
X141370000Y-79377500D01*
X142120000Y-75387500D02*
X141370000Y-76137500D01*
X141370000Y-79377500D02*
X140620000Y-80127500D01*
X141370000Y-76137500D02*
X140620000Y-75387500D01*
X140620000Y-80127500D02*
X133380000Y-80127500D01*
X140620000Y-75387500D02*
X133380000Y-75387500D01*
X133380000Y-80127500D02*
X133380000Y-75387500D01*
X132240000Y-77757500D02*
X133380000Y-77757500D01*
%TD*%
M02*
