%TF.GenerationSoftware,KiCad,Pcbnew,8.0.7*%
%TF.CreationDate,2024-12-24T07:35:49+05:30*%
%TF.ProjectId,ic555_test,69633535-355f-4746-9573-742e6b696361,rev?*%
%TF.SameCoordinates,Original*%
%TF.FileFunction,Copper,L1,Top*%
%TF.FilePolarity,Positive*%
%FSLAX46Y46*%
G04 Gerber Fmt 4.6, Leading zero omitted, Abs format (unit mm)*
G04 Created by KiCad (PCBNEW 8.0.7) date 2024-12-24 07:35:49*
%MOMM*%
%LPD*%
G01*
G04 APERTURE LIST*
G04 Aperture macros list*
%AMRoundRect*
0 Rectangle with rounded corners*
0 $1 Rounding radius*
0 $2 $3 $4 $5 $6 $7 $8 $9 X,Y pos of 4 corners*
0 Add a 4 corners polygon primitive as box body*
4,1,4,$2,$3,$4,$5,$6,$7,$8,$9,$2,$3,0*
0 Add four circle primitives for the rounded corners*
1,1,$1+$1,$2,$3*
1,1,$1+$1,$4,$5*
1,1,$1+$1,$6,$7*
1,1,$1+$1,$8,$9*
0 Add four rect primitives between the rounded corners*
20,1,$1+$1,$2,$3,$4,$5,0*
20,1,$1+$1,$4,$5,$6,$7,0*
20,1,$1+$1,$6,$7,$8,$9,0*
20,1,$1+$1,$8,$9,$2,$3,0*%
G04 Aperture macros list end*
%TA.AperFunction,SMDPad,CuDef*%
%ADD10RoundRect,0.150000X-0.825000X-0.150000X0.825000X-0.150000X0.825000X0.150000X-0.825000X0.150000X0*%
%TD*%
%TA.AperFunction,ComponentPad*%
%ADD11C,1.400000*%
%TD*%
%TA.AperFunction,ComponentPad*%
%ADD12O,1.400000X1.400000*%
%TD*%
%TA.AperFunction,ComponentPad*%
%ADD13RoundRect,0.300000X0.600000X-0.300000X0.600000X0.300000X-0.600000X0.300000X-0.600000X-0.300000X0*%
%TD*%
%TA.AperFunction,ComponentPad*%
%ADD14O,1.800000X1.200000*%
%TD*%
%TA.AperFunction,ComponentPad*%
%ADD15O,2.000000X2.000000*%
%TD*%
%TA.AperFunction,ComponentPad*%
%ADD16R,2.000000X2.000000*%
%TD*%
%TA.AperFunction,ViaPad*%
%ADD17C,0.600000*%
%TD*%
%TA.AperFunction,Conductor*%
%ADD18C,0.200000*%
%TD*%
G04 APERTURE END LIST*
D10*
%TO.P,U1,1,GND*%
%TO.N,GND*%
X138525000Y-86095000D03*
%TO.P,U1,2,TR*%
%TO.N,Net-(U1-THR)*%
X138525000Y-87365000D03*
%TO.P,U1,3,Q*%
%TO.N,unconnected-(U1-Q-Pad3)*%
X138525000Y-88635000D03*
%TO.P,U1,4,R*%
%TO.N,VCC*%
X138525000Y-89905000D03*
%TO.P,U1,5,CV*%
%TO.N,Net-(U1-CV)*%
X143475000Y-89905000D03*
%TO.P,U1,6,THR*%
%TO.N,Net-(U1-THR)*%
X143475000Y-88635000D03*
%TO.P,U1,7,DIS*%
%TO.N,Net-(U1-DIS)*%
X143475000Y-87365000D03*
%TO.P,U1,8,VCC*%
%TO.N,VCC*%
X143475000Y-86095000D03*
%TD*%
D11*
%TO.P,R2,1*%
%TO.N,Net-(U1-DIS)*%
X147905000Y-93000000D03*
D12*
%TO.P,R2,2*%
%TO.N,Net-(U1-THR)*%
X146005000Y-93000000D03*
%TD*%
D11*
%TO.P,R1,1*%
%TO.N,VCC*%
X148500000Y-86095000D03*
D12*
%TO.P,R1,2*%
%TO.N,Net-(U1-DIS)*%
X148500000Y-87995000D03*
%TD*%
D13*
%TO.P,J1,1,Pin_1*%
%TO.N,VCC*%
X130400000Y-90500000D03*
D14*
%TO.P,J1,2,Pin_2*%
%TO.N,GND*%
X130400000Y-88500000D03*
%TD*%
D15*
%TO.P,C2,2*%
%TO.N,GND*%
X131000000Y-70257500D03*
D16*
%TO.P,C2,1*%
%TO.N,Net-(U1-CV)*%
X146000000Y-70257500D03*
%TD*%
%TO.P,C1,1*%
%TO.N,Net-(U1-THR)*%
X146000000Y-77757500D03*
D15*
%TO.P,C1,2*%
%TO.N,GND*%
X131000000Y-77757500D03*
%TD*%
D17*
%TO.N,VCC*%
X142000000Y-88000000D03*
X140500000Y-89500000D03*
%TD*%
D18*
%TO.N,GND*%
X131000000Y-70257500D02*
X131000000Y-77757500D01*
%TO.N,VCC*%
X142500001Y-86095000D02*
X143475000Y-86095000D01*
X142000000Y-86595001D02*
X142500001Y-86095000D01*
X142000000Y-88000000D02*
X142000000Y-86595001D01*
X140095000Y-89905000D02*
X140500000Y-89500000D01*
X138525000Y-89905000D02*
X140095000Y-89905000D01*
X130400000Y-90500000D02*
X137930000Y-90500000D01*
X137930000Y-90500000D02*
X138525000Y-89905000D01*
%TO.N,GND*%
X131000000Y-84095000D02*
X133000000Y-86095000D01*
X133000000Y-86095000D02*
X138525000Y-86095000D01*
X132805000Y-86095000D02*
X133000000Y-86095000D01*
X131000000Y-77757500D02*
X131000000Y-84095000D01*
X130400000Y-88500000D02*
X132805000Y-86095000D01*
%TO.N,Net-(U1-THR)*%
X146000000Y-83500000D02*
X146000000Y-77757500D01*
X145500000Y-84000000D02*
X146000000Y-83500000D01*
X141000000Y-84000000D02*
X145500000Y-84000000D01*
X139499999Y-87365000D02*
X141000000Y-85864999D01*
X138525000Y-87365000D02*
X139499999Y-87365000D01*
X141000000Y-85864999D02*
X141000000Y-84000000D01*
X141135000Y-88635000D02*
X143475000Y-88635000D01*
X138525000Y-87365000D02*
X139865000Y-87365000D01*
X139865000Y-87365000D02*
X141135000Y-88635000D01*
%TO.N,Net-(U1-DIS)*%
X147905000Y-89095000D02*
X147905000Y-93000000D01*
X148500000Y-88500000D02*
X147905000Y-89095000D01*
X148500000Y-87995000D02*
X148500000Y-88500000D01*
%TO.N,Net-(U1-THR)*%
X146000000Y-89500000D02*
X146005000Y-89505000D01*
X146000000Y-89000000D02*
X146000000Y-89500000D01*
X145635000Y-88635000D02*
X146000000Y-89000000D01*
X143475000Y-88635000D02*
X145635000Y-88635000D01*
X146005000Y-89505000D02*
X146005000Y-93000000D01*
%TO.N,Net-(U1-CV)*%
X151500000Y-75757500D02*
X146000000Y-70257500D01*
X151500000Y-96500000D02*
X151500000Y-75757500D01*
X144000000Y-96500000D02*
X151500000Y-96500000D01*
X143475000Y-95975000D02*
X144000000Y-96500000D01*
X143475000Y-89905000D02*
X143475000Y-95975000D01*
%TO.N,VCC*%
X143475000Y-86095000D02*
X148500000Y-86095000D01*
%TO.N,Net-(U1-DIS)*%
X147005000Y-87995000D02*
X148500000Y-87995000D01*
X146500000Y-88000000D02*
X147000000Y-88000000D01*
X145865000Y-87365000D02*
X146500000Y-88000000D01*
X143475000Y-87365000D02*
X145865000Y-87365000D01*
X147000000Y-88000000D02*
X147005000Y-87995000D01*
%TD*%
M02*
