%TF.GenerationSoftware,KiCad,Pcbnew,8.0.7*%
%TF.CreationDate,2024-12-24T07:35:49+05:30*%
%TF.ProjectId,ic555_test,69633535-355f-4746-9573-742e6b696361,rev?*%
%TF.SameCoordinates,Original*%
%TF.FileFunction,Legend,Bot*%
%TF.FilePolarity,Positive*%
%FSLAX46Y46*%
G04 Gerber Fmt 4.6, Leading zero omitted, Abs format (unit mm)*
G04 Created by KiCad (PCBNEW 8.0.7) date 2024-12-24 07:35:49*
%MOMM*%
%LPD*%
G01*
G04 APERTURE LIST*
%ADD10C,0.100000*%
G04 APERTURE END LIST*
D10*
X154586704Y-74756265D02*
X154586704Y-75232455D01*
X154872419Y-74661027D02*
X153872419Y-74994360D01*
X153872419Y-74994360D02*
X154872419Y-75327693D01*
X154824800Y-75613408D02*
X154872419Y-75708646D01*
X154872419Y-75708646D02*
X154872419Y-75899122D01*
X154872419Y-75899122D02*
X154824800Y-75994360D01*
X154824800Y-75994360D02*
X154729561Y-76041979D01*
X154729561Y-76041979D02*
X154681942Y-76041979D01*
X154681942Y-76041979D02*
X154586704Y-75994360D01*
X154586704Y-75994360D02*
X154539085Y-75899122D01*
X154539085Y-75899122D02*
X154539085Y-75756265D01*
X154539085Y-75756265D02*
X154491466Y-75661027D01*
X154491466Y-75661027D02*
X154396228Y-75613408D01*
X154396228Y-75613408D02*
X154348609Y-75613408D01*
X154348609Y-75613408D02*
X154253371Y-75661027D01*
X154253371Y-75661027D02*
X154205752Y-75756265D01*
X154205752Y-75756265D02*
X154205752Y-75899122D01*
X154205752Y-75899122D02*
X154253371Y-75994360D01*
X154205752Y-76327694D02*
X154205752Y-76708646D01*
X153872419Y-76470551D02*
X154729561Y-76470551D01*
X154729561Y-76470551D02*
X154824800Y-76518170D01*
X154824800Y-76518170D02*
X154872419Y-76613408D01*
X154872419Y-76613408D02*
X154872419Y-76708646D01*
X154872419Y-77470551D02*
X154348609Y-77470551D01*
X154348609Y-77470551D02*
X154253371Y-77422932D01*
X154253371Y-77422932D02*
X154205752Y-77327694D01*
X154205752Y-77327694D02*
X154205752Y-77137218D01*
X154205752Y-77137218D02*
X154253371Y-77041980D01*
X154824800Y-77470551D02*
X154872419Y-77375313D01*
X154872419Y-77375313D02*
X154872419Y-77137218D01*
X154872419Y-77137218D02*
X154824800Y-77041980D01*
X154824800Y-77041980D02*
X154729561Y-76994361D01*
X154729561Y-76994361D02*
X154634323Y-76994361D01*
X154634323Y-76994361D02*
X154539085Y-77041980D01*
X154539085Y-77041980D02*
X154491466Y-77137218D01*
X154491466Y-77137218D02*
X154491466Y-77375313D01*
X154491466Y-77375313D02*
X154443847Y-77470551D01*
X154872419Y-77946742D02*
X153872419Y-77946742D01*
X154253371Y-77946742D02*
X154205752Y-78041980D01*
X154205752Y-78041980D02*
X154205752Y-78232456D01*
X154205752Y-78232456D02*
X154253371Y-78327694D01*
X154253371Y-78327694D02*
X154300990Y-78375313D01*
X154300990Y-78375313D02*
X154396228Y-78422932D01*
X154396228Y-78422932D02*
X154681942Y-78422932D01*
X154681942Y-78422932D02*
X154777180Y-78375313D01*
X154777180Y-78375313D02*
X154824800Y-78327694D01*
X154824800Y-78327694D02*
X154872419Y-78232456D01*
X154872419Y-78232456D02*
X154872419Y-78041980D01*
X154872419Y-78041980D02*
X154824800Y-77946742D01*
X154872419Y-78994361D02*
X154824800Y-78899123D01*
X154824800Y-78899123D02*
X154729561Y-78851504D01*
X154729561Y-78851504D02*
X153872419Y-78851504D01*
X154824800Y-79756266D02*
X154872419Y-79661028D01*
X154872419Y-79661028D02*
X154872419Y-79470552D01*
X154872419Y-79470552D02*
X154824800Y-79375314D01*
X154824800Y-79375314D02*
X154729561Y-79327695D01*
X154729561Y-79327695D02*
X154348609Y-79327695D01*
X154348609Y-79327695D02*
X154253371Y-79375314D01*
X154253371Y-79375314D02*
X154205752Y-79470552D01*
X154205752Y-79470552D02*
X154205752Y-79661028D01*
X154205752Y-79661028D02*
X154253371Y-79756266D01*
X154253371Y-79756266D02*
X154348609Y-79803885D01*
X154348609Y-79803885D02*
X154443847Y-79803885D01*
X154443847Y-79803885D02*
X154539085Y-79327695D01*
X154872419Y-80994362D02*
X153872419Y-80994362D01*
X153872419Y-80994362D02*
X154586704Y-81327695D01*
X154586704Y-81327695D02*
X153872419Y-81661028D01*
X153872419Y-81661028D02*
X154872419Y-81661028D01*
X154872419Y-82280076D02*
X154824800Y-82184838D01*
X154824800Y-82184838D02*
X154777180Y-82137219D01*
X154777180Y-82137219D02*
X154681942Y-82089600D01*
X154681942Y-82089600D02*
X154396228Y-82089600D01*
X154396228Y-82089600D02*
X154300990Y-82137219D01*
X154300990Y-82137219D02*
X154253371Y-82184838D01*
X154253371Y-82184838D02*
X154205752Y-82280076D01*
X154205752Y-82280076D02*
X154205752Y-82422933D01*
X154205752Y-82422933D02*
X154253371Y-82518171D01*
X154253371Y-82518171D02*
X154300990Y-82565790D01*
X154300990Y-82565790D02*
X154396228Y-82613409D01*
X154396228Y-82613409D02*
X154681942Y-82613409D01*
X154681942Y-82613409D02*
X154777180Y-82565790D01*
X154777180Y-82565790D02*
X154824800Y-82518171D01*
X154824800Y-82518171D02*
X154872419Y-82422933D01*
X154872419Y-82422933D02*
X154872419Y-82280076D01*
X154872419Y-83470552D02*
X153872419Y-83470552D01*
X154824800Y-83470552D02*
X154872419Y-83375314D01*
X154872419Y-83375314D02*
X154872419Y-83184838D01*
X154872419Y-83184838D02*
X154824800Y-83089600D01*
X154824800Y-83089600D02*
X154777180Y-83041981D01*
X154777180Y-83041981D02*
X154681942Y-82994362D01*
X154681942Y-82994362D02*
X154396228Y-82994362D01*
X154396228Y-82994362D02*
X154300990Y-83041981D01*
X154300990Y-83041981D02*
X154253371Y-83089600D01*
X154253371Y-83089600D02*
X154205752Y-83184838D01*
X154205752Y-83184838D02*
X154205752Y-83375314D01*
X154205752Y-83375314D02*
X154253371Y-83470552D01*
X154824800Y-84327695D02*
X154872419Y-84232457D01*
X154872419Y-84232457D02*
X154872419Y-84041981D01*
X154872419Y-84041981D02*
X154824800Y-83946743D01*
X154824800Y-83946743D02*
X154729561Y-83899124D01*
X154729561Y-83899124D02*
X154348609Y-83899124D01*
X154348609Y-83899124D02*
X154253371Y-83946743D01*
X154253371Y-83946743D02*
X154205752Y-84041981D01*
X154205752Y-84041981D02*
X154205752Y-84232457D01*
X154205752Y-84232457D02*
X154253371Y-84327695D01*
X154253371Y-84327695D02*
X154348609Y-84375314D01*
X154348609Y-84375314D02*
X154443847Y-84375314D01*
X154443847Y-84375314D02*
X154539085Y-83899124D01*
M02*
